<?xml version="1.0" encoding="UTF-8"?>
<!DOCTYPE svg PUBLIC "-//W3C//DTD SVG 1.1//EN" "http://www.w3.org/Graphics/SVG/1.1/DTD/svg11.dtd">
<svg xmlns="http://www.w3.org/2000/svg" version="1.1" width="81px" height="81px" style="shape-rendering:geometricPrecision; text-rendering:geometricPrecision; image-rendering:optimizeQuality; fill-rule:evenodd; clip-rule:evenodd" xmlns:xlink="http://www.w3.org/1999/xlink">
<g><path style="opacity:1" fill="#0076d5" d="M -0.5,-0.5 C 26.5,-0.5 53.5,-0.5 80.5,-0.5C 80.5,26.5 80.5,53.5 80.5,80.5C 78.8333,80.5 77.1667,80.5 75.5,80.5C 71.784,72.0667 67.784,63.7334 63.5,55.5C 66.5,52.1667 69.5,48.8333 72.5,45.5C 69.5,42.1667 66.5,38.8333 63.5,35.5C 67.9419,27.2931 71.7752,18.9598 75,10.5C 67.1394,14.7636 59.1394,18.7636 51,22.5C 47.38,19.8832 44.0467,16.8832 41,13.5C 37.9533,16.8832 34.62,19.8832 31,22.5C 22.5656,18.1934 14.0656,14.3601 5.5,11C 9.83333,19.3333 14.1667,27.6667 18.5,36C 15.3172,39.0155 12.3172,42.1822 9.5,45.5C 12.3172,48.8178 15.3172,51.9845 18.5,55C 14.0259,63.4486 9.69252,71.9486 5.5,80.5C 3.5,80.5 1.5,80.5 -0.5,80.5C -0.5,53.5 -0.5,26.5 -0.5,-0.5 Z"/></g>
<g><path style="opacity:1" fill="#070409" d="M 75.5,80.5 C 75.1667,80.5 74.8333,80.5 74.5,80.5C 66.9464,76.1391 59.1131,72.1391 51,68.5C 47.38,71.1168 44.0467,74.1168 41,77.5C 37.9533,74.1168 34.62,71.1168 31,68.5C 22.8869,72.1391 15.0536,76.1391 7.5,80.5C 6.83333,80.5 6.16667,80.5 5.5,80.5C 9.69252,71.9486 14.0259,63.4486 18.5,55C 15.3172,51.9845 12.3172,48.8178 9.5,45.5C 12.3172,42.1822 15.3172,39.0155 18.5,36C 14.1667,27.6667 9.83333,19.3333 5.5,11C 14.0656,14.3601 22.5656,18.1934 31,22.5C 34.62,19.8832 37.9533,16.8832 41,13.5C 44.0467,16.8832 47.38,19.8832 51,22.5C 59.1394,18.7636 67.1394,14.7636 75,10.5C 71.7752,18.9598 67.9419,27.2931 63.5,35.5C 66.5,38.8333 69.5,42.1667 72.5,45.5C 69.5,48.8333 66.5,52.1667 63.5,55.5C 67.784,63.7334 71.784,72.0667 75.5,80.5 Z"/></g>
<g><path style="opacity:1" fill="#de1822" d="M 15.5,21.5 C 15.56,20.9569 15.8933,20.6236 16.5,20.5C 21.7451,23.039 26.9117,25.7057 32,28.5C 34.6824,25.6503 37.5157,22.9836 40.5,20.5C 43.5,23.1667 46.5,25.8333 49.5,28.5C 54.7451,25.961 59.9117,23.2943 65,20.5C 63.2385,26.2 60.7385,31.7 57.5,37C 60.3497,39.6824 63.0164,42.5157 65.5,45.5C 62.7518,48.2396 60.4185,51.2396 58.5,54.5C 61.0067,59.8256 63.1733,65.159 65,70.5C 59.9117,67.7057 54.7451,65.039 49.5,62.5C 46.5,65.1667 43.5,67.8333 40.5,70.5C 37.5157,68.0164 34.6824,65.3497 32,62.5C 26.7,65.7385 21.2,68.2385 15.5,70C 18.2943,64.9117 20.961,59.7451 23.5,54.5C 20.8333,51.5 18.1667,48.5 15.5,45.5C 18.1667,42.5 20.8333,39.5 23.5,36.5C 21.0591,31.2796 18.3924,26.2796 15.5,21.5 Z"/></g>
<g><path style="opacity:1" fill="#fec53f" d="M 40.5,29.5 C 42.4807,31.1436 44.4807,32.8103 46.5,34.5C 49.9242,32.4198 53.2575,31.0864 56.5,30.5C 54.9608,33.7456 53.2941,36.9123 51.5,40C 53.3513,41.6837 55.018,43.5171 56.5,45.5C 55.018,47.4829 53.3513,49.3163 51.5,51C 53.7445,54.3071 55.2445,57.8071 56,61.5C 52.9123,59.7059 49.7456,58.0392 46.5,56.5C 44.5171,57.982 42.6837,59.6487 41,61.5C 39.2806,59.4429 37.2806,57.7763 35,56.5C 31.8866,58.1547 28.7199,59.3214 25.5,60C 27.2376,57.3581 28.5709,54.5247 29.5,51.5C 28.5944,49.2525 27.2611,47.2525 25.5,45.5C 26.982,43.5171 28.6487,41.6837 30.5,40C 28.8333,37 27.1667,34 25.5,31C 28.7199,31.6786 31.8866,32.8453 35,34.5C 37.3164,33.3496 39.1498,31.6829 40.5,29.5 Z"/></g>
<g><path style="opacity:1" fill="#fffcf5" d="M 40.5,38.5 C 42.5775,41.0711 44.7442,41.0711 47,38.5C 47.2649,40.1626 46.7649,41.6626 45.5,43C 48.1667,44.6667 48.1667,46.3333 45.5,48C 48.5274,52.4689 47.8607,53.3023 43.5,50.5C 42.5224,50.9767 41.6891,51.6433 41,52.5C 39.1434,50.3687 36.9768,49.8687 34.5,51C 34.5,47.3333 34.5,43.6667 34.5,40C 35.6716,39.6466 36.8382,39.8132 38,40.5C 39.301,40.3613 40.1344,39.6946 40.5,38.5 Z"/></g>
<g><path style="opacity:1" fill="#0075d2" d="M 74.5,80.5 C 52.1667,80.5 29.8333,80.5 7.5,80.5C 15.0536,76.1391 22.8869,72.1391 31,68.5C 34.62,71.1168 37.9533,74.1168 41,77.5C 44.0467,74.1168 47.38,71.1168 51,68.5C 59.1131,72.1391 66.9464,76.1391 74.5,80.5 Z"/></g>
</svg>
